<svg width="14" height="14" viewBox="0 0 14 14" fill="none" xmlns="http://www.w3.org/2000/svg">
<rect width="14" height="14" fill="#1E1E1E"/>
<g clip-path="url(#clip0_0_1)">
<rect x="-116" y="-322" width="390" height="1317" rx="15" fill="#F7F9F7"/>
<rect x="-61" y="-118" width="276" height="175" rx="15" fill="#A6D0ED"/>
<rect x="-93" y="-151" width="336" height="186" rx="15" fill="#446386"/>
<g clip-path="url(#clip1_0_1)">
<path fill-rule="evenodd" clip-rule="evenodd" d="M4.02891 12.8839C4.74657 12.949 5.67221 12.95 7 12.95C8.32776 12.95 9.25344 12.949 9.97108 12.8839C10.6743 12.8202 11.0741 12.7017 11.375 12.528C11.8539 12.2515 12.2515 11.8539 12.528 11.375C12.7017 11.0741 12.8202 10.6743 12.8839 9.97108C12.949 9.25344 12.95 8.32776 12.95 7C12.95 5.67221 12.949 4.74657 12.8839 4.02891C12.8202 3.32568 12.7017 2.92586 12.528 2.625C12.2515 2.14614 11.8539 1.74849 11.375 1.47202C11.0741 1.29832 10.6743 1.17979 9.97108 1.11605C9.25344 1.05101 8.32776 1.05 7 1.05C5.67221 1.05 4.74657 1.05101 4.02891 1.11605C3.32568 1.17979 2.92586 1.29832 2.625 1.47202C2.14614 1.74849 1.74849 2.14614 1.47202 2.625C1.29832 2.92586 1.17979 3.32568 1.11605 4.02891C1.05101 4.74657 1.05 5.67221 1.05 7C1.05 8.32776 1.05101 9.25344 1.11605 9.97108C1.17979 10.6743 1.29832 11.0741 1.47202 11.375C1.74849 11.8539 2.14614 12.2515 2.625 12.528C2.92586 12.7017 3.32568 12.8202 4.02891 12.8839ZM0.562693 2.1C0 3.07461 0 4.38308 0 7C0 9.61695 0 10.9254 0.562693 11.9C0.931322 12.5385 1.46152 13.0686 2.1 13.4373C3.07461 14 4.38308 14 7 14C9.61695 14 10.9254 14 11.9 13.4373C12.5385 13.0686 13.0686 12.5385 13.4373 11.9C14 10.9254 14 9.61695 14 7C14 4.38308 14 3.07461 13.4373 2.1C13.0686 1.46152 12.5385 0.931322 11.9 0.562693C10.9254 0 9.61695 0 7 0C4.38308 0 3.07461 0 2.1 0.562693C1.46152 0.931322 0.931322 1.46152 0.562693 2.1Z" fill="white"/>
<path fill-rule="evenodd" clip-rule="evenodd" d="M6.97878 4.52877C7.18383 4.32374 7.51619 4.32374 7.72122 4.52877L9.82122 6.62877C10.0262 6.83379 10.0262 7.16618 9.82122 7.37121L7.72122 9.47121C7.51619 9.67624 7.18383 9.67624 6.97878 9.47121C6.77376 9.26618 6.77376 8.93382 6.97878 8.72879L8.18259 7.525H4.41001C4.12006 7.525 3.88501 7.28994 3.88501 6.99999C3.88501 6.71004 4.12006 6.47499 4.41001 6.47499H8.18252L6.97878 5.27123C6.77376 5.06621 6.77376 4.73379 6.97878 4.52877Z" fill="white"/>
</g>
</g>
<defs>
<clipPath id="clip0_0_1">
<rect x="-116" y="-322" width="390" height="1317" rx="15" fill="white"/>
</clipPath>
<clipPath id="clip1_0_1">
<rect width="14" height="14" fill="white"/>
</clipPath>
</defs>
</svg>
