<svg width="189" height="141" viewBox="0 0 189 141" fill="none" xmlns="http://www.w3.org/2000/svg">
<path d="M78.7236 36.5869L145.287 96.7686L135.913 106.976C134.404 108.619 132.584 109.951 130.556 110.896C128.529 111.841 126.333 112.381 124.096 112.484C121.858 112.587 119.621 112.252 117.514 111.498C115.407 110.743 113.47 109.584 111.814 108.087L57.8597 59.3057C56.3561 57.9465 55.1371 56.3067 54.2723 54.4799C53.4075 52.6532 52.9138 50.6753 52.8194 48.6593C52.725 46.6432 53.0317 44.6284 53.7221 42.73C54.4125 40.8316 55.473 39.0867 56.8431 37.5949C58.2131 36.1032 59.8657 34.8938 61.7068 34.0358C63.5478 33.1778 65.5411 32.688 67.5729 32.5944C69.6047 32.5008 71.6352 32.8052 73.5485 33.4902C75.4617 34.1752 77.2202 35.2275 78.7236 36.5869Z" fill="#323B80"/>
<path d="M120.562 40.8085H147.719C150.238 40.8085 152.731 41.3007 155.058 42.2569C157.384 43.2131 159.498 44.6146 161.279 46.3815C163.06 48.1484 164.472 50.2459 165.436 52.5544C166.4 54.8629 166.896 57.3372 166.896 59.8359V101.621H101.389V59.8351C101.389 54.7887 103.41 49.949 107.006 46.3807C110.602 42.8123 115.48 40.8077 120.566 40.8077L120.562 40.8085Z" fill="#848ED6"/>
<path d="M76.9331 102.661L77.1781 126.972L44.7261 127.294L44.7239 127.078C44.6595 120.687 47.1564 114.532 51.6654 109.968C56.1743 105.404 62.326 102.804 68.767 102.74L76.9331 102.659L76.9331 102.661Z" fill="#848ED6"/>
<path d="M83.5753 48.5873L82.8539 111.682L51.8789 111.333L52.6003 48.2386C52.6233 46.2205 53.0467 44.2266 53.8463 42.3709C54.6459 40.5151 55.8061 38.8338 57.2606 37.423C58.7152 36.0122 60.4355 34.8994 62.3235 34.1483C64.2114 33.3973 66.23 33.0225 68.2639 33.0455C70.2978 33.0684 72.3072 33.4886 74.1774 34.282C76.0476 35.0755 77.742 36.2267 79.1638 37.6699C80.5856 39.1131 81.707 40.82 82.4639 42.6932C83.2208 44.5664 83.5985 46.5693 83.5753 48.5873Z" fill="#323B80"/>
<path d="M80.0589 100.202L151.514 87.9429C155.08 87.3311 158.746 88.1499 161.703 90.2194C164.661 92.2888 166.669 95.4393 167.286 98.9778L167.389 99.5703C168.145 103.907 167.133 108.365 164.577 111.962C162.02 115.559 158.128 118.001 153.757 118.751L85.3369 130.49C83.3717 130.827 81.3589 130.777 79.4133 130.342C77.4677 129.907 75.6275 129.096 73.9977 127.956C72.3679 126.816 70.9804 125.368 69.9145 123.695C68.8486 122.023 68.1252 120.158 67.7855 118.209L67.6823 117.616C66.9963 113.678 67.9148 109.632 70.2359 106.366C72.5569 103.1 76.0903 100.883 80.0589 100.202Z" fill="#323B80"/>
<path d="M35.5688 133.607L11.5711 138.508L5.02905 106.969L5.24185 106.925C11.5504 105.638 18.116 106.889 23.4946 110.405C28.8732 113.92 32.6242 119.411 33.9226 125.671L35.5688 133.607Z" fill="#848ED6"/>
<path d="M90.4481 129.685L27.8867 141L22.332 110.762L84.8934 99.4476C86.8944 99.0857 88.9477 99.1185 90.936 99.544C92.9242 99.9694 94.8086 100.779 96.4814 101.927C98.1542 103.076 99.5827 104.539 100.685 106.235C101.788 107.931 102.543 109.826 102.908 111.811C103.644 115.821 102.746 119.957 100.409 123.309C98.0722 126.661 94.4892 128.955 90.4481 129.685Z" fill="#323B80"/>
<path d="M189 44.3114V81.9251C189 84.6504 187.909 87.264 185.967 89.1911C184.025 91.1181 181.39 92.2007 178.644 92.2007C175.897 92.2007 173.263 91.1181 171.321 89.1911C169.379 87.264 168.288 84.6504 168.288 81.9251V45.077H157.848V42.1515C157.848 41.2857 158.02 40.4283 158.354 39.6284C158.688 38.8285 159.178 38.1017 159.795 37.4895C160.412 36.8772 161.144 36.3917 161.95 36.0604C162.757 35.7291 163.621 35.5587 164.493 35.5588H188.949V44.3138L189 44.3114Z" fill="#DB666E"/>
<path d="M186.272 11.6981L166.466 4.2135L151.246 43.8656L171.052 51.3502L186.272 11.6981Z" fill="#848ED6"/>
<path d="M184.225 10.8701L164.419 3.38556L149.239 42.9311L169.045 50.4157L184.225 10.8701Z" fill="#323B80"/>
<path d="M169.574 19.4445C169.574 20.0385 169.812 20.6083 170.235 21.0284C170.658 21.4484 171.233 21.6844 171.831 21.6844H182.958C183.152 21.6844 183.344 21.7223 183.523 21.7959C183.702 21.8695 183.865 21.9774 184.002 22.1134C184.139 22.2493 184.248 22.4108 184.322 22.5884C184.396 22.7661 184.434 22.9565 184.434 23.1489V36.4912H188.949V20.443C188.949 19.5843 188.605 18.7607 187.993 18.1536C187.381 17.5464 186.551 17.2053 185.685 17.2053H171.831C171.233 17.2053 170.659 17.4412 170.235 17.8611C169.812 18.281 169.574 18.8505 169.574 19.4445Z" fill="#DB666E"/>
<path d="M163.931 25.0444C163.931 25.6384 164.169 26.2079 164.592 26.6278C165.016 27.0477 165.59 27.2836 166.188 27.2836H177.315C177.707 27.2836 178.082 27.4379 178.359 27.7125C178.636 27.9871 178.791 28.3596 178.791 28.748V42.0912H183.305V26.043C183.305 25.6177 183.221 25.1966 183.057 24.8037C182.893 24.4108 182.653 24.0538 182.35 23.753C182.047 23.4523 181.687 23.2137 181.291 23.051C180.895 22.8882 180.471 22.8044 180.042 22.8044H166.188C165.59 22.8044 165.015 23.0404 164.592 23.4605C164.169 23.8806 163.931 24.4503 163.931 25.0444Z" fill="#DB666E"/>
<path d="M159.165 31.2035C159.165 31.7976 159.403 32.3674 159.826 32.7874C160.25 33.2075 160.824 33.4435 161.423 33.4435H172.55C172.942 33.4435 173.317 33.5977 173.593 33.8722C173.87 34.1467 174.026 34.5189 174.026 34.9071V43.8951L178.541 44.0198V32.2021C178.541 31.3432 178.197 30.5195 177.585 29.9121C176.972 29.3048 176.142 28.9636 175.277 28.9636H161.423C160.824 28.9636 160.25 29.1996 159.826 29.6196C159.403 30.0397 159.165 30.6095 159.165 31.2035Z" fill="#DB666E"/>
<path d="M163.421 20.3528C164.576 19.6914 164.971 18.2265 164.305 17.0808C163.638 15.9352 162.162 15.5427 161.007 16.2041L152.591 21.0256C151.436 21.687 151.04 23.1519 151.707 24.2975C152.374 25.4432 153.85 25.8357 155.005 25.1743L163.421 20.3528Z" fill="#DB666E"/>
<path d="M175.755 17.2541C175.755 17.2541 175.369 19.7121 169.723 18.9712" stroke="white" stroke-width="2" stroke-miterlimit="10"/>
<path d="M170.112 22.8532C170.112 22.8532 169.726 25.3112 164.08 24.5704" stroke="white" stroke-width="2" stroke-miterlimit="10"/>
<path d="M165.347 29.0123C165.347 29.0123 164.96 31.4711 159.314 30.7294" stroke="white" stroke-width="2" stroke-miterlimit="10"/>
<path d="M158.348 17.9735C158.348 17.9735 162.238 19.6312 164.307 17.0806" stroke="white" stroke-width="2" stroke-miterlimit="10"/>
<path d="M148.113 27.4314L146.718 27.728V38.1283C146.718 38.4589 146.632 38.7838 146.468 39.0714C146.304 39.3591 146.067 39.5996 145.781 39.7695V43.8166H126.284V28.9908H126.579V21.3095C126.579 19.0241 127.494 16.8323 129.123 15.2163C130.751 13.6003 132.96 12.6924 135.264 12.6924H146.643L146.718 13.4456L148.113 27.4314Z" fill="#DB666E"/>
<path d="M135.851 21.0014C135.851 21.0014 139.89 17.5886 143.578 21.0014C143.577 21.0014 140.387 24.0682 135.851 21.0014Z" fill="white"/>
<path d="M139.739 22.2378C140.482 22.2378 141.085 21.6399 141.085 20.9023C141.085 20.1647 140.482 19.5667 139.739 19.5667C138.995 19.5667 138.393 20.1647 138.393 20.9023C138.393 21.6399 138.995 22.2378 139.739 22.2378Z" fill="black"/>
<path d="M136.149 25.1559C136.149 25.1559 140.188 21.7431 143.876 25.1559C143.876 25.1559 140.686 28.2227 136.149 25.1559Z" fill="white"/>
<path d="M140.038 26.3932C140.781 26.3932 141.384 25.7953 141.384 25.0577C141.384 24.3201 140.781 23.7221 140.038 23.7221C139.294 23.7221 138.692 24.3201 138.692 25.0577C138.692 25.7953 139.294 26.3932 140.038 26.3932Z" fill="black"/>
<path d="M147.714 13.4555V14.1089C147.715 14.4686 147.644 14.825 147.505 15.1574C147.366 15.4899 147.163 15.792 146.907 16.0465C146.651 16.3011 146.346 16.503 146.011 16.6407C145.676 16.7785 145.317 16.8494 144.955 16.8494H134.788C134.208 16.8494 133.633 16.9629 133.096 17.1834C132.56 17.4039 132.073 17.7271 131.662 18.1345C131.251 18.5419 130.926 19.0256 130.704 19.5579C130.482 20.0902 130.367 20.6607 130.367 21.2368V22.3931H129.969C129.559 22.3931 129.166 22.5546 128.876 22.8421C128.586 23.1295 128.423 23.5195 128.423 23.9261V24.52C128.423 24.9266 128.586 25.3165 128.876 25.604C129.166 25.8914 129.559 26.0529 129.969 26.0529V27.1911C129.969 27.5938 129.889 27.9925 129.733 28.3646C129.578 28.7366 129.35 29.0746 129.063 29.3593C128.776 29.644 128.436 29.8698 128.061 30.0239C127.686 30.1779 127.284 30.2571 126.878 30.257C126.878 30.2545 126.877 30.252 126.876 30.2498C126.874 30.2477 126.873 30.2459 126.87 30.2446C126.121 29.6854 125.881 28.6613 125.881 27.7296V20.1416C125.881 19.8773 125.891 19.6155 125.912 19.3561C124.524 19.5272 123.117 19.2912 121.862 18.6772C120.608 18.0632 119.563 17.0982 118.855 15.9013C118.147 14.7044 117.809 13.3281 117.88 11.9423C117.952 10.5565 118.432 9.2219 119.259 8.10337C120.087 6.98483 121.227 6.13133 122.538 5.64827C123.849 5.16521 125.274 5.07376 126.637 5.38519C127.999 5.69663 129.24 6.39732 130.206 7.40072C131.172 8.40413 131.821 9.66631 132.072 11.0314C133.25 10.5589 134.509 10.3169 135.78 10.3186H144.551C145.39 10.3186 146.194 10.649 146.787 11.2373C147.38 11.8255 147.714 12.6234 147.714 13.4555Z" fill="black"/>
</svg>
